<svg width="256" height="256" viewBox="0 0 256 256" fill="none" xmlns="http://www.w3.org/2000/svg">
  <!-- Background circle -->
  <circle cx="128" cy="128" r="120" fill="#28a745" stroke="#1e7e34" stroke-width="8"/>
  
  <!-- Letter S -->
  <path d="M 80 80 
           Q 80 60, 100 60
           L 140 60
           Q 160 60, 160 80
           Q 160 100, 140 100
           L 120 100
           Q 100 100, 100 120
           Q 100 140, 120 140
           L 160 140
           Q 180 140, 180 160
           Q 180 180, 160 180
           L 120 180
           Q 80 180, 80 160
           Q 80 140, 100 140
           L 120 140
           Q 140 140, 140 160
           Q 140 180, 120 180
           L 100 180" 
        fill="white" 
        stroke="white" 
        stroke-width="4"/>
  
  <!-- Success checkmark -->
  <path d="M 180 100 L 200 120 L 230 90" 
        stroke="white" 
        stroke-width="8" 
        fill="none" 
        stroke-linecap="round" 
        stroke-linejoin="round"/>
</svg>